<?xml version="1.0" encoding="utf-8"?><!DOCTYPE svg PUBLIC "-//W3C//DTD SVG 1.1//EN" "http://www.w3.org/Graphics/SVG/1.1/DTD/svg11.dtd"><svg version="1.1" id="Contours" xmlns="http://www.w3.org/2000/svg" xmlns:xlink="http://www.w3.org/1999/xlink" x="0px" y="0px" width="1247.517212px" height="1247.517212px" viewBox="0.000001 0.000001 1247.517212 1244.363281" enable-background="new 0 0 1247.517212 1247.517212" xml:space="preserve" stroke="white" fill="none" stroke-linecap='round' stroke-linejoin='round'><path class="selected"  fill="#FFFFFF" opacity="1.000000" stroke="none" 
 	d="
M654.217053 765.476069 C663.529241 800.064416 666.807985 836.268396 663.861195 871.966953 C626.202460 844.133534 588.543724 816.300114 550.884989 788.466694 C548.161061 786.453449 545.115070 783.677342 545.752510 780.350691 C546.443468 776.744741 550.838174 775.437535 554.460758 774.839887 C584.853771 769.825699 615.246784 764.811512 645.639797 759.797325 C647.484279 759.493025 649.500439 759.217004 651.120159 760.150396 C652.948859 761.204222 653.668354 763.438026 654.217056 765.476068 z"/><path class="selected"  fill="#FFFFFF" opacity="1.000000" stroke="none" 
 	d="
M560.545577 1011.633215 C528.237171 1005.471001 497.548485 991.003339 472.236107 970.001210 C468.498518 966.900069 464.803193 963.569718 462.470597 959.309948 C460.224730 955.208561 459.383971 950.505831 458.645440 945.888487 C454.951960 922.796597 452.998604 899.426581 452.807401 876.041957 C452.793544 874.347538 452.820459 872.541485 453.753914 871.127304 C456.426748 867.077973 462.693066 869.897436 466.432054 872.989538 C477.272085 881.954141 488.112118 890.918739 498.952151 899.883337 C504.801470 904.720665 511.289011 911.499847 509.034952 918.747846 C507.253244 924.476978 512.450635 929.929376 517.556538 933.080120 C522.662440 936.230865 528.749257 939.307243 530.304327 945.101998 C536.646829 968.736470 546.909303 991.314071 560.545576 1011.633215 z"/><path class="selected"  fill="#FFFFFF" opacity="1.000000" stroke="none" 
 	d="
M557.480683 910.763452 C552.182664 911.632549 546.504453 912.412376 541.642678 910.134773 C532.656934 905.925199 531.061904 894.033173 530.848333 884.112563 C530.493651 867.636320 530.563743 851.154221 530.633852 834.674311 C530.678625 824.148789 530.723402 813.623268 530.768178 803.097747 C530.782440 799.745281 530.947912 796.013060 533.332306 793.656389 C537.618569 789.419963 544.759511 792.908449 549.610709 796.484093 C585.737289 823.111700 621.863869 849.739306 657.990448 876.366913 C660.451871 878.181139 663.184726 880.562485 662.903425 883.607298 C662.571434 887.200790 658.406981 888.912951 654.919857 889.842123 C622.807096 898.398815 590.275572 905.383714 557.480683 910.763452 z"/><path class="selected"  fill="#FFFFFF" opacity="1.000000" stroke="none" 
 	d="
M443.532651 609.202913 C444.237215 606.034576 448.998289 606.930706 451.796434 608.575440 C494.284657 633.549796 536.772881 658.524152 579.261104 683.498509 C580.580065 684.273787 582.033670 685.237104 582.279536 686.747159 C582.494742 688.068906 581.693544 689.320056 580.929567 690.419906 C567.892233 709.188935 554.854899 727.957965 541.817566 746.726995 C539.644302 749.855706 537.297442 753.131388 533.811657 754.668011 C529.033225 756.774465 523.254075 754.948211 519.302815 751.533814 C515.351554 748.119417 512.839531 743.376680 510.417828 738.750027 C504.729206 727.881922 499.040580 717.013820 493.351954 706.145717 C477.037385 674.976783 460.722816 643.807848 444.408247 612.638914 C443.847995 611.568555 443.270401 610.382224 443.532652 609.202913 z"/><path class="selected"  fill="#FFFFFF" opacity="1.000000" stroke="none" 
 	d="
M416.303046 736.868291 C414.028845 736.161592 411.665082 735.403164 409.953043 733.747767 C405.871422 729.801177 406.536617 721.866910 401.389261 719.471097 C397.827641 717.813356 398.309369 712.666350 399.363648 708.881944 C407.646348 679.150737 415.929044 649.419529 424.211741 619.688321 C425.205320 616.121812 426.904027 611.901899 430.570184 611.385686 C434.445274 610.840054 437.262099 614.845584 439.087917 618.306860 C462.735301 663.136116 486.382683 707.965370 510.030065 752.794625 C511.322007 755.243810 512.637937 758.137973 511.506047 760.665115 C509.694304 764.710141 503.825979 764.065663 499.593398 762.750408 C471.829947 754.123034 444.066497 745.495662 416.303046 736.868291 z"/><path class="selected"  fill="#FFFFFF" opacity="1.000000" stroke="none" 
 	d="
M533.208487 376.984162 C523.908631 423.810667 527.317981 472.707508 539.784973 518.792028 C552.251964 564.876549 573.589354 608.257867 599.662884 648.250115 C605.146137 656.660468 598.242050 667.440102 591.658469 675.020113 C589.810871 677.147346 586.956235 679.475805 584.522273 678.056451 C546.200097 655.709054 507.877921 633.361657 469.555745 611.014260 C463.412620 607.431926 457.139253 603.741565 452.572106 598.290669 C448.004959 592.839773 445.404207 585.185963 447.768678 578.479222 C449.348745 573.997413 452.870451 570.520278 456.281594 567.211603 C466.688404 557.117405 477.095214 547.023208 487.502023 536.929010 C491.719790 532.837943 496.192413 528.243539 496.799203 522.399038 C497.115899 519.348569 496.319114 516.304493 495.529376 513.341057 C487.894429 484.691551 480.259486 456.042045 472.624544 427.392539 C471.968633 424.931287 471.323953 422.253574 472.305154 419.902995 C473.170609 417.829700 475.124750 416.452806 476.983009 415.190095 C495.724835 402.454784 514.466661 389.719473 533.208487 376.984162 z"/><path class="selected"  fill="#FFFFFF" opacity="1.000000" stroke="none" 
 	d="
M395.144750 605.044830 C399.376016 603.623174 403.763098 602.182099 408.206173 602.610825 C412.649248 603.039551 417.187576 605.869569 418.133797 610.231838 C418.683471 612.765943 417.974764 615.384542 417.271246 617.880318 C408.777155 648.013655 400.283066 678.146992 391.788976 708.280329 C390.937351 711.301526 389.572709 714.828545 386.501709 715.478052 C382.964537 716.226154 380.165381 712.628181 378.348573 709.502409 C363.538393 684.021855 348.728213 658.541302 333.918033 633.060749 C332.970167 631.429970 331.991585 629.514122 332.645414 627.744829 C333.308303 625.951035 335.339762 625.138598 337.152535 624.529525 C356.483274 618.034629 375.814012 611.539729 395.144750 605.044829 z"/><path class="selected"  fill="#FFFFFF" opacity="1.000000" stroke="none" 
 	d="
M407.827429 592.558234 C406.457464 594.105943 404.394254 594.808040 402.428816 595.447774 C378.929301 603.096662 355.429786 610.745551 331.930272 618.394441 C347.589861 578.238131 365.066219 538.790351 384.287987 500.212176 C385.419458 497.941307 386.985222 495.370324 389.515084 495.178313 C392.794427 494.929417 394.710714 498.714849 395.717858 501.845616 C402.783137 523.808494 409.848418 545.771370 416.913699 567.734247 C417.562170 569.750062 418.211363 571.940209 417.517633 573.940901 C416.540493 576.758941 413.312405 578.116164 411.682224 580.613897 C409.367142 584.161021 410.634895 589.386512 407.827426 592.558233 z"/><path class="selected"  fill="#FFFFFF" opacity="1.000000" stroke="none" 
 	d="
M432.326261 816.207976 C422.846006 795.923130 413.365752 775.638284 403.885498 755.353438 C402.312457 751.987610 400.815401 747.751292 403.105631 744.825870 C405.620619 741.613354 410.621965 742.520639 414.516105 743.737642 C441.867558 752.285567 469.219012 760.833491 496.570466 769.381415 C499.430069 770.275103 502.409630 771.239588 504.525810 773.360388 C507.996198 776.838356 508.149585 782.622297 506.212505 787.137558 C504.275425 791.652818 500.656263 795.195480 497.125630 798.612274 C488.210166 807.240261 479.294709 815.868251 470.379251 824.496241 C464.869176 829.828652 458.295458 835.556032 450.665536 834.794570 C441.580335 833.887867 436.192031 824.479542 432.326261 816.207976 z"/><path class="selected"  fill="#FFFFFF" opacity="1.000000" stroke="none" 
 	d="
M630.095279 979.000240 C627.670937 979.898577 625.070457 978.422066 622.907940 977.005040 C597.514393 960.365446 572.120843 943.725856 546.727294 927.086267 C544.901310 925.889757 542.837724 923.671496 544.090841 921.883885 C544.684757 921.036647 545.798300 920.768408 546.812333 920.562777 C585.032618 912.812274 623.252903 905.061771 661.473188 897.311268 C656.628047 924.428599 647.284263 950.736711 633.939230 974.835156 C633.003243 976.525362 631.906963 978.328923 630.095280 979.000241 z"/><path class="selected"  fill="#FFFFFF" opacity="1.000000" stroke="none" 
 	d="
M459.923760 371.733358 C459.118056 376.607064 458.167337 381.526044 456.021203 385.975344 C454.280719 389.583660 451.804197 392.777619 449.346600 395.941389 C434.119024 415.544498 418.891449 435.147607 403.663874 454.750717 C401.925583 456.988492 398.261830 459.207515 396.789397 456.786517 C396.464075 456.251617 396.382544 455.608297 396.310197 454.986431 C393.068155 427.119175 393.770763 398.795937 398.390560 371.123708 C399.568279 364.069247 401.072695 356.869084 404.940163 350.852845 C408.807630 344.836605 415.549249 340.180885 422.681321 340.715668 C432.311454 341.437768 442.640639 336.346232 451.255418 340.710449 C456.397712 343.315517 459.544190 348.873765 460.589013 354.542796 C461.633836 360.211827 460.863968 366.046040 459.923760 371.733357 z"/><path class="selected"  fill="#FFFFFF" opacity="1.000000" stroke="none" 
 	d="
M597.156520 694.080270 C605.423720 698.940931 613.690919 703.801591 621.958119 708.662252 C636.911575 717.454065 647.231399 733.688988 648.845112 750.960287 C640.669459 753.963098 631.994453 755.306168 623.386347 756.632320 C600.241491 760.197983 577.096635 763.763645 553.951780 767.329308 C550.879437 767.802629 547.349096 768.150488 545.032363 766.077792 C541.236336 762.681626 543.967979 756.480868 546.866708 752.292655 C559.650365 733.822261 572.434022 715.351866 585.217678 696.881472 C586.643812 694.820930 588.322637 692.590678 590.788132 692.142315 C593.021059 691.736249 595.200072 692.929983 597.156522 694.080266 z"/><path class="selected"  fill="#FFFFFF" opacity="1.000000" stroke="none" 
 	d="
M1.256996 581.620265 C14.132339 386.911843 124.319064 201.060301 288.969990 96.335820 C453.620916 -8.388660 668.657585 -29.392018 850.460895 41.493106 C1063.924351 124.722524 1222.503405 334.106129 1244.775875 562.136215 C1267.048344 790.166301 1151.982296 1026.277748 958.658227 1149.239478 C765.334157 1272.201208 502.709181 1276.316142 305.627709 1159.471474 C108.546238 1042.626805 -13.860524 810.236196 1.256996 581.620265 M616.876347 1018.772422 C639.818267 1005.139402 653.754710 980.347811 663.351332 955.446088 C688.743692 889.556898 690.414721 814.807025 667.992151 747.848937 C643.474523 674.634607 592.174924 612.883094 566.213630 540.168148 C535.685217 454.661184 543.377638 356.288758 586.826459 276.566585 C594.487339 262.510026 603.323466 245.456313 595.367219 231.564809 C586.677489 216.392670 564.719016 216.917577 547.802640 221.338138 C486.624937 237.325012 433.603637 278.210118 396.329512 329.287814 C359.055387 380.365511 336.671576 441.149453 324.241805 503.147777 C309.873953 574.813029 308.333713 649.030587 319.715930 721.230230 C328.981544 780.003848 346.979619 837.874188 377.381255 889.020353 C407.782891 940.166519 451.036710 984.404890 504.046677 1011.425866 C539.120376 1029.304121 583.033346 1038.883308 616.876345 1018.772424 M670.028796 226.702429 C648.092324 235.537414 634.399324 257.386749 624.710627 278.959763 C591.408059 353.111816 588.687082 440.459147 617.309699 516.540247 C637.530164 570.287797 672.126464 617.368906 696.512869 669.358996 C721.154568 721.893361 735.211843 779.863824 733.298825 837.858764 C731.385808 895.853704 713.020514 953.786998 677.921754 999.994678 C670.838196 1009.320205 678.155501 1023.947129 689.082148 1028.160261 C700.008796 1032.373393 712.303384 1029.221919 723.315376 1025.237180 C778.924418 1005.114777 825.814244 964.466191 859.073963 915.567649 C892.333682 866.669108 912.608616 809.817504 924.315222 751.849999 C941.088126 668.795755 940.733209 582.321654 923.279121 499.407890 C911.844703 445.089920 892.924209 391.888564 862.874616 345.217270 C832.825023 298.545976 791.204098 258.573523 740.935443 235.031008 C718.749639 224.640643 692.753314 217.550054 670.028796 226.702427 z"/><path class="selected"  fill="#FFFFFF" opacity="1.000000" stroke="none" 
 	d="
M331.513839 597.821677 C336.646102 520.920649 351.440266 443.087908 389.292616 375.951421 C388.594492 401.642434 387.896368 427.333446 387.198244 453.024459 C387.138177 455.234941 386.811685 457.882683 384.821539 458.846611 C374.102986 464.038134 370.582234 479.963476 378.113349 489.189611 C379.517764 490.910118 378.658137 493.460521 377.743818 495.484514 C362.333821 529.596901 346.923830 563.709289 331.513839 597.821677 z"/><path class="selected"  fill="#FFFFFF" opacity="1.000000" stroke="none" 
 	d="
M375.761939 846.268950 C347.783260 782.997172 332.917434 713.961741 332.374518 644.782051 C345.757318 667.505846 359.140119 690.229641 372.522919 712.953436 C374.790609 716.803939 376.804457 722.365216 373.315750 725.157655 C368.209378 729.244897 370.768023 737.550408 374.696257 742.780085 C378.624491 748.009762 383.832071 753.551647 382.764547 760.004626 C378.050567 788.499805 375.705651 817.386535 375.761939 846.268950 z"/><path class="selected"  fill="#FFFFFF" opacity="1.000000" stroke="none" 
 	d="
M577.612264 250.282961 C567.991705 271.156193 558.371145 292.029425 548.750586 312.902657 C547.359060 315.921781 543.649971 316.939695 540.391804 317.599847 C524.364918 320.847113 508.269763 323.757423 492.120557 326.328204 C489.131451 326.804038 485.491245 327.021990 483.687687 324.591280 C481.564333 321.729570 483.730126 317.755426 485.860189 314.898706 C508.442806 284.612177 532.846209 252.896371 568.007879 239.079517 C571.269234 237.797960 575.415683 236.844382 577.919811 239.295539 C580.721419 242.037884 579.253274 246.722547 577.612264 250.282961 z"/><path class="selected"  fill="#FFFFFF" opacity="1.000000" stroke="none" 
 	d="
M534.934929 362.966588 C533.934390 366.675774 530.590951 369.193228 527.458771 371.417769 C508.584501 384.822668 489.710232 398.227569 470.835963 411.632469 C469.428499 410.034113 468.833287 407.894714 468.346611 405.821349 C465.001609 391.570807 464.839963 376.582310 467.876846 362.262942 C468.702782 358.368525 469.906198 354.283413 472.908725 351.669320 C475.698726 349.240260 479.728168 348.385316 482.080928 345.530679 C484.463398 342.639995 484.654488 338.221400 487.517602 335.805868 C489.177986 334.405048 491.422171 333.968631 493.559647 333.580857 C510.839241 330.446050 528.118834 327.311242 545.398428 324.176434 C541.910595 337.106485 538.422762 350.036537 534.934929 362.966588 z"/><path class="selected"  fill="#FFFFFF" opacity="1.000000" stroke="none" 
 	d="
M463.610502 426.107674 C464.958790 426.352277 465.546141 427.920265 465.888072 429.247214 C473.487595 458.739077 481.087118 488.230939 488.686642 517.722801 C476.827438 512.080669 464.968235 506.438537 453.109031 500.796405 C444.397819 496.651960 435.676455 492.503128 426.676713 489.029470 C421.979987 487.216661 417.079733 485.512126 413.335649 482.146512 C409.591566 478.780898 407.288585 473.217785 409.300187 468.602703 C410.432388 466.005179 412.708335 464.114578 414.912402 462.333825 C429.949766 450.184546 445.309255 438.433972 460.969294 427.098608 C461.753410 426.531033 462.658071 425.934887 463.610502 426.107674 z"/><path class="selected"  fill="#FFFFFF" opacity="1.000000" stroke="none" 
 	d="
M545.861580 241.403849 C520.075097 261.289279 497.326201 285.106265 478.643998 311.777380 C473.838969 318.637145 460.129443 313.582991 456.413976 321.088987 C453.175499 327.631355 446.222263 331.700627 439.088758 333.250940 C431.955253 334.801253 424.551555 334.188590 417.277917 333.568461 C448.143770 289.568205 494.278455 256.500355 545.861580 241.403849 z"/><path class="selected"  fill="#FFFFFF" opacity="1.000000" stroke="none" 
 	d="
M469.488995 834.551247 C483.038684 821.936710 496.588373 809.322174 510.138062 796.707637 C512.630164 794.387531 515.912392 791.888833 519.101103 793.082813 C522.608814 794.396239 523.166780 799.041318 523.143280 802.786793 C522.950096 833.576284 522.756911 864.365775 522.563727 895.155266 C522.549843 897.368119 522.461114 899.789179 521.005447 901.455896 C517.826016 905.096297 511.940746 902.060828 508.248494 898.941762 C495.249440 887.960677 482.250385 876.979594 469.251330 865.998510 C467.455196 864.481207 465.565874 862.822345 464.947292 860.553939 C463.744226 856.142163 467.706434 850.858595 464.972731 847.192806 C462.027384 843.243213 465.882932 837.908430 469.488992 834.551245 z"/><path class="selected"  fill="#FFFFFF" opacity="1.000000" stroke="none" 
 	d="
M569.219121 1011.201550 C567.195814 1010.026988 565.911977 1007.932183 564.735136 1005.910201 C553.070580 985.868782 543.618413 964.540744 536.605436 942.437837 C535.698472 939.579342 535.016044 935.975841 537.257825 933.983857 C539.834910 931.693927 543.843812 933.539621 546.725604 935.431822 C572.778155 952.538087 598.830706 969.644348 624.883256 986.750609 C613.470128 1001.898335 595.078996 1011.556604 576.129662 1012.354001 C573.763370 1012.453576 571.267392 1012.390603 569.219121 1011.201551 z"/><path class="selected"  fill="#FFFFFF" opacity="1.000000" stroke="none" 
 	d="
M458.794727 419.148573 C444.226876 430.651998 429.659025 442.155422 415.091173 453.658847 C414.335603 453.571909 413.865061 452.567913 414.281670 451.931610 C429.334445 433.088827 444.387221 414.246044 459.439997 395.403261 C460.305502 400.230924 461.171007 405.058588 462.036511 409.886251 C462.391642 411.867119 462.729542 413.997256 461.878637 415.820965 C461.232997 417.204732 459.993127 418.202266 458.794730 419.148576 z"/><path class="selected"  fill="#FFFFFF" opacity="1.000000" stroke="none" 
 	d="
M396.862387 875.697582 C395.947652 876.256481 394.965140 876.834463 393.893567 876.805475 C392.234620 876.760597 390.990763 875.310678 390.082095 873.921996 C383.075355 863.213854 382.670571 849.611673 382.918052 836.817242 C383.439748 809.846285 385.844997 782.911931 390.110482 756.275296 C390.277860 755.230069 390.518228 754.069523 391.389688 753.468632 C393.257125 752.180989 395.435459 754.597085 396.418266 756.641451 C408.572882 781.924662 420.727497 807.207869 432.882113 832.491077 C433.675418 834.141257 434.488149 835.885747 434.366658 837.712676 C434.074629 842.104065 428.560491 845.516544 429.835292 849.728961 C431.073724 853.821203 426.878834 857.357672 423.230414 859.586840 C414.441072 864.957087 405.651729 870.327335 396.862387 875.697582 z"/><path class="selected"  fill="#FFFFFF" opacity="1.000000" stroke="none" 
 	d="
M626.884765 703.936735 C617.985533 698.485585 609.086301 693.034434 600.187068 687.583284 C597.659183 686.034849 594.771688 683.071651 596.450616 680.628486 C599.688008 675.917455 602.925399 671.206424 606.162791 666.495393 C606.507217 665.994186 606.885679 665.465368 607.453621 665.247931 C608.805501 664.730364 610.024681 666.213535 610.719832 667.483267 C617.311706 679.523705 623.903581 691.564140 630.495457 703.604576 C630.319526 705.043844 628.121220 704.694115 626.884765 703.936735 z"/><path class="selected"  fill="#FFFFFF" opacity="1.000000" stroke="none" 
 	d="
M450.656183 563.551362 C447.665444 566.667733 444.586416 569.849288 440.695171 571.723987 C436.803925 573.598685 431.866374 573.921518 428.356169 571.404624 C425.240830 569.170858 423.876758 565.277529 422.688941 561.632787 C416.038524 541.226381 409.388106 520.819974 402.737688 500.413568 C401.514420 496.660042 400.603282 491.790995 403.744491 489.399730 C406.523220 487.284404 410.486183 488.715024 413.642875 490.208759 C436.576782 501.061004 459.510689 511.913247 482.444595 522.765490 C484.043923 523.522286 485.926493 524.797686 485.587629 526.534280 C485.440928 527.286090 484.887038 527.882571 484.356657 528.435232 C473.123164 540.140608 461.889674 551.845985 450.656183 563.551362 z"/><path class="selected"  fill="#FFFFFF" opacity="1.000000" stroke="none" 
 	d="
M399.010885 889.604082 C397.896218 887.901139 396.767248 885.730074 397.753111 883.949464 C398.216932 883.111745 399.063168 882.569461 399.875335 882.062228 C407.286105 877.433898 414.696873 872.805568 422.107641 868.177237 C425.624777 865.980641 429.455900 863.700922 433.592256 863.993902 C438.649926 864.352138 442.736849 868.618032 444.512367 873.367336 C446.287886 878.116640 446.231936 883.321547 446.267950 888.391760 C446.423819 910.336280 448.731841 932.264980 453.148150 953.761084 C452.009916 954.041535 450.947385 953.149547 450.116408 952.322683 C430.965410 933.266418 413.806947 912.208914 399.010885 889.604082 z"/><path class="selected"  fill="#FFFFFF" opacity="1.000000" stroke="none" 
 	d="
M855.229774 537.817923 C856.233167 540.449716 855.535344 543.389389 854.822570 546.114289 C846.249034 578.890500 836.753458 611.425520 826.350854 643.667905 C821.417304 640.666020 818.782432 635.082103 816.417738 629.813379 C797.434896 587.518094 778.452052 545.222810 759.469209 502.927526 C758.516979 500.805883 757.544494 498.464560 758.167208 496.223949 C759.638067 490.931596 767.305189 491.574031 772.489084 493.390528 C794.977677 501.270800 817.466269 509.151069 839.954862 517.031338 C842.088127 517.778860 844.373363 518.641399 845.613888 520.531031 C847.084470 522.771097 846.640061 525.769017 847.640715 528.254817 C849.173883 532.063483 853.767151 533.981614 855.229775 537.817923 z"/><path class="selected"  fill="#FFFFFF" opacity="1.000000" stroke="none" 
 	d="
M776.138473 847.178191 C767.715346 853.742991 759.292219 860.307791 750.869091 866.872590 C758.665789 780.993873 737.167728 692.721938 690.755909 620.045355 C686.431622 613.273925 681.760202 606.250289 681.089697 598.243907 C680.419191 590.237526 685.489618 581.105551 693.500065 580.485494 C698.567089 580.093275 703.214080 583.061713 707.424922 585.907303 C735.288540 604.736892 763.152158 623.566481 791.015776 642.396071 C796.848349 646.337588 802.860766 650.463723 806.526094 656.473701 C811.700034 664.957327 811.026022 676.618818 804.909125 684.449855 C794.530292 697.737140 784.151463 711.024425 773.772634 724.311710 C771.926679 726.674957 770.040552 729.115041 769.205529 731.995183 C768.189847 735.498455 768.840866 739.241941 769.498030 742.829790 C774.911370 772.384275 780.324705 801.938761 785.738041 831.493246 C786.902767 837.852151 781.237436 843.204172 776.138473 847.178191 z"/><path class="selected"  fill="#FFFFFF" opacity="1.000000" stroke="none" 
 	d="
M749.500333 501.125048 C750.974871 502.415766 751.823633 504.259244 752.630536 506.045056 C773.102076 551.352059 793.573617 596.659061 814.045158 641.966064 C814.868492 643.788243 815.490748 646.367612 813.794352 647.426130 C812.430357 648.277240 810.686906 647.352532 809.357988 646.447628 C771.639022 620.763450 733.920056 595.079280 696.201090 569.395111 C707.718579 549.810222 719.236067 530.225333 730.753556 510.640444 C732.796852 507.165925 734.944759 503.577046 738.272351 501.302299 C741.599943 499.027551 746.467352 498.470171 749.500333 501.125048 z"/><path class="selected"  fill="#FFFFFF" opacity="1.000000" stroke="none" 
 	d="
M798.067415 308.571741 C801.865722 331.386952 803.362422 354.584700 802.527441 377.698847 C802.343740 382.784103 800.582336 389.406742 795.496114 389.561400 C793.012316 389.636925 790.859772 387.960850 788.948662 386.372577 C775.455729 375.158956 761.962796 363.945334 748.469863 352.731713 C746.728047 351.284135 744.796621 349.189204 745.610192 347.075556 C749.526679 336.900573 732.981559 329.557116 732.316634 318.674698 C730.862805 294.880971 727.268106 271.218462 721.590146 248.066442 C744.260862 255.663927 765.457075 267.634914 783.669238 283.126856 C787.715280 286.568570 791.692824 290.280252 794.175100 294.976437 C796.387899 299.162802 797.289795 303.900826 798.067415 308.571741 z"/><path class="selected"  fill="#FFFFFF" opacity="1.000000" stroke="none" 
 	d="
M629.476628 494.843744 C620.809851 468.782429 616.754633 441.194738 617.555148 413.741790 C652.298063 430.877681 686.247125 449.622995 719.257023 469.897499 C722.412658 471.835672 726.008835 475.502423 723.972882 478.595875 C723.004880 480.066669 721.123842 480.578057 719.409091 480.977924 C691.999751 487.369580 664.590411 493.761237 637.181071 500.152894 C636.074963 500.410831 634.920676 500.669211 633.815505 500.407290 C631.419112 499.839354 630.253783 497.180683 629.476623 494.843747 z"/><path class="selected"  fill="#FFFFFF" opacity="1.000000" stroke="none" 
 	d="
M617.261951 387.872497 C620.140274 349.544947 629.839590 311.739486 645.768756 276.760242 C666.642270 292.649690 686.940807 309.294450 706.611295 326.651005 C708.574802 328.383535 710.583592 330.190503 711.703297 332.557627 C714.005815 337.425289 711.832000 343.457768 707.997087 347.237869 C704.162175 351.017971 698.996530 353.065068 694.005007 355.085073 C669.864938 364.854232 646.357180 376.185536 623.677586 388.984574 C621.337462 390.305205 617.060726 390.552005 617.261949 387.872499 z"/><path class="selected"  fill="#FFFFFF" opacity="1.000000" stroke="none" 
 	d="
M623.445428 396.020050 C647.692582 384.308163 671.939736 372.596277 696.186890 360.884390 C703.771489 357.220868 712.795817 353.550252 720.247872 357.476370 C728.136177 361.632326 729.908782 371.943359 730.766106 380.818172 C732.886823 402.771322 735.007540 424.724473 737.128257 446.677623 C737.530423 450.840753 737.907372 455.193620 736.342591 459.072389 C734.777810 462.951157 730.605048 466.123837 726.554562 465.081269 C725.448098 464.796471 724.438722 464.228752 723.443845 463.666979 C688.310374 443.828319 653.176902 423.989659 618.043431 404.150999 C616.208360 400.965200 620.134870 397.619118 623.445426 396.020048 z"/><path class="selected"  fill="#FFFFFF" opacity="1.000000" stroke="none" 
 	d="
M857.096873 656.781247 C875.526372 650.572440 893.955870 644.363634 912.385368 638.154827 C914.112290 637.573036 916.627432 637.356659 917.166551 639.097374 C900.442278 677.078099 883.718006 715.058818 866.993734 753.039537 C865.797775 755.755554 863.468933 759.010485 860.671457 758.019931 C858.921981 757.400461 858.168541 755.389907 857.629451 753.614016 C851.001458 731.779810 844.373464 709.945605 837.745471 688.111400 C837.113515 686.029584 836.476152 683.829799 836.968042 681.710514 C838.188011 676.454336 845.776597 673.664755 845.193459 668.300458 C844.545464 662.339551 851.414645 658.695561 857.096872 656.781245 z"/><path class="selected"  fill="#FFFFFF" opacity="1.000000" stroke="none" 
 	d="
M916.817008 658.148328 C915.090858 732.045889 897.003574 805.517124 864.227070 871.770651 C864.113550 848.294927 864.000030 824.819202 863.886510 801.343478 C863.876722 799.319536 863.886283 797.208702 864.794672 795.400038 C865.982289 793.035425 868.448961 791.654965 870.446878 789.919985 C877.360887 783.915912 878.282393 772.220660 872.394031 765.207845 C870.527427 762.984788 871.629041 759.635459 872.809777 756.983657 C887.478854 724.038547 902.147931 691.093438 916.817008 658.148328 z"/><path class="selected"  fill="#FFFFFF" opacity="1.000000" stroke="none" 
 	d="
M761.607712 467.760500 C761.657015 465.790954 762.985222 464.116196 764.248861 462.604654 C772.436540 452.810712 780.624218 443.016769 788.811897 433.222826 C791.468146 430.045472 794.263795 426.761136 798.057597 425.100319 C804.257673 422.386106 812.331520 425.261673 815.419978 431.284075 C826.790351 453.455963 838.160724 475.627851 849.531097 497.799739 C851.543093 501.723071 853.154198 507.399643 849.457444 509.802699 C847.181249 511.282329 844.178531 510.453251 841.608101 509.579602 C817.810330 501.491111 794.012561 493.402622 770.214791 485.314132 C767.055656 484.240391 763.143017 481.540461 764.618246 478.547677 C766.325678 475.083835 761.511072 471.621092 761.607713 467.760500 z"/><path class="selected"  fill="#FFFFFF" opacity="1.000000" stroke="none" 
 	d="
M877.263551 411.248570 C902.254610 473.943896 915.835251 541.167342 917.142516 608.647324 C905.056797 586.528902 892.971078 564.410479 880.885359 542.292056 C878.781230 538.441231 876.727199 533.478517 879.365900 529.972313 C885.207188 522.210661 882.650027 509.567731 874.251535 504.686217 C870.895120 502.735344 870.768662 498.019462 871.058434 494.148098 C873.126810 466.514922 875.195181 438.881746 877.263551 411.248570 z"/><path class="selected"  fill="#FFFFFF" opacity="1.000000" stroke="none" 
 	d="
M912.460249 630.199172 C892.010238 637.216672 871.560226 644.234171 851.110214 651.251671 C844.317908 653.582477 836.118888 647.587844 836.279795 640.408554 C836.322617 638.497889 836.851732 636.635629 837.376950 634.798070 C845.918940 604.912535 854.460928 575.027000 863.002916 545.141465 C863.597251 543.062086 864.396142 540.735964 866.367983 539.847767 C869.753174 538.322938 873.001352 542.126782 874.784043 545.383564 C888.492864 570.428071 902.006031 595.579672 915.321895 620.835299 C916.489892 623.050586 917.640119 625.832087 916.238548 627.907493 C915.398685 629.151125 913.879665 629.712094 912.460250 630.199172 z"/><path class="selected"  fill="#FFFFFF" opacity="1.000000" stroke="none" 
 	d="
M728.107876 1004.752712 C726.345234 1005.549174 723.916326 1006.174625 722.769523 1004.617031 C749.259362 979.856210 771.488409 950.548897 788.190582 918.364320 C791.426602 912.128609 803.849256 917.116195 806.617180 910.659066 C809.723383 903.412789 819.401668 902.393538 827.285234 902.473589 C833.163450 902.533280 839.041665 902.592970 844.919880 902.652659 C817.112447 947.144017 775.919934 983.148516 728.107876 1004.752712 z"/><path class="selected"  fill="#FFFFFF" opacity="1.000000" stroke="none" 
 	d="
M656.727335 543.218091 C652.594305 540.263108 648.447597 537.215602 645.225609 533.287161 C640.467858 527.486223 638.043090 520.171950 635.715869 513.039550 C635.311718 511.800918 634.911158 510.429328 635.423062 509.231203 C636.093707 507.661543 637.989261 507.096260 639.653228 506.715720 C665.789966 500.738424 691.926702 494.761126 718.063438 488.783827 C720.829807 488.151177 723.931813 487.567924 726.344646 489.061669 C731.129125 492.023660 728.809595 499.355584 725.971902 504.214815 C715.062136 522.896556 704.152371 541.578298 693.242606 560.260039 C692.192125 562.058869 690.739585 564.093897 688.657518 564.028393 C687.622880 563.995841 686.692785 563.423644 685.819818 562.867350 C675.949929 556.577800 666.247835 550.024941 656.727335 543.218091 z"/><path class="selected"  fill="#FFFFFF" opacity="1.000000" stroke="none" 
 	d="
M819.713346 423.709580 C817.033006 418.461290 825.415884 412.803119 823.649171 407.181065 C822.201631 402.574688 826.944626 398.556893 831.067057 396.043004 C838.506460 391.506404 845.945862 386.969803 853.385264 382.433202 C856.211433 380.709783 859.890792 378.988119 862.609294 380.876808 C863.883077 381.761776 864.577768 383.250338 865.150274 384.691839 C870.440905 398.013009 870.050148 412.827921 869.272910 427.140163 C867.975314 451.034402 865.818912 474.881993 862.809265 498.621421 C862.583026 500.405943 861.450325 502.784544 859.769840 502.142927 C846.417674 475.998477 833.065510 449.854028 819.713346 423.709580 z"/><path class="selected"  fill="#FFFFFF" opacity="1.000000" stroke="none" 
 	d="
M652.266889 266.869551 C661.591109 248.338453 684.495052 237.810009 704.630920 242.798947 C706.963222 243.376807 709.330431 244.183026 711.085884 245.823739 C713.362929 247.951952 714.263378 251.132617 715.028169 254.154094 C720.500683 275.774477 724.023547 297.887952 725.540053 320.138561 C725.687876 322.307457 725.684850 324.811839 724.040929 326.234331 C721.515000 328.420027 717.690864 326.248621 715.126036 324.108704 C694.529971 306.924759 673.933907 289.740814 653.337842 272.556869 C652.615556 271.954243 651.859528 271.303081 651.570185 270.408018 C651.190399 269.233167 651.711916 267.972510 652.266887 266.869550 z"/><path class="selected"  fill="#FFFFFF" opacity="1.000000" stroke="none" 
 	d="
M788.509616 395.868666 C790.886291 400.512929 787.345610 406.317522 788.917963 411.292004 C789.691927 413.740609 791.689581 415.970341 791.278518 418.505239 C791.046261 419.937504 790.070715 421.120357 789.131749 422.226554 C779.836954 433.176748 770.542160 444.126943 761.247366 455.077138 C757.925998 458.990041 752.387016 463.221727 748.316930 460.094958 C746.147287 458.428166 745.695359 455.394660 745.410333 452.673576 C742.389824 423.837406 739.369316 395.001236 736.348807 366.165066 C736.097455 363.765466 735.974847 360.991684 737.723947 359.329785 C740.490291 356.701361 744.954112 359.122329 747.902415 361.544884 C760.206869 371.655179 772.511321 381.765474 784.815773 391.875769 C786.227187 393.035497 787.677418 394.242471 788.509615 395.868667 z"/><path class="selected"  fill="#FFFFFF" opacity="1.000000" stroke="none" 
 	d="
M779.972663 911.234931 C781.109844 910.467762 782.978810 909.867186 783.570721 911.104671 C767.841830 944.020515 745.029330 973.176191 719.345801 999.083854 C713.020589 1005.464265 705.213138 1012.132928 696.291559 1011.073024 C696.093943 1009.647399 696.819810 1008.274059 697.521816 1007.017617 C709.081093 986.329029 720.640368 965.640440 732.199644 944.951850 C733.506267 942.613278 735.806868 941.030174 738.027609 939.532011 C752.009294 930.099651 765.990979 920.667291 779.972663 911.234931 z"/><path class="selected"  fill="#FFFFFF" opacity="1.000000" stroke="none" 
 	d="
M779.868574 735.313933 C778.980289 734.881040 778.014173 734.365165 777.672635 733.437912 C777.221921 732.214246 778.062367 730.926175 778.857625 729.892703 C790.026155 715.378735 801.194684 700.864767 812.363212 686.350798 C813.993189 684.232576 815.775306 682.003200 818.313627 681.166172 C821.709336 680.046415 825.519228 681.856402 827.802220 684.608245 C830.085212 687.360089 831.172741 690.882982 832.207572 694.305528 C837.565430 712.025848 842.923290 729.746168 848.281149 747.466487 C849.265451 750.721916 850.260895 754.099207 849.814905 757.470818 C849.368915 760.842428 847.063446 764.220135 843.708037 764.775015 C841.271773 765.177897 838.867955 764.066505 836.648171 762.984723 C817.721639 753.761126 798.795106 744.537530 779.868574 735.313933 z"/><path class="selected"  fill="#FFFFFF" opacity="1.000000" stroke="none" 
 	d="
M855.975375 796.023601 C857.775248 822.742805 857.527882 849.599671 855.236162 876.281190 C854.928141 879.867347 854.579763 883.470279 853.648725 886.947140 C853.157294 888.782333 852.471590 890.630268 851.168052 892.012378 C849.089552 894.216161 845.870385 894.832569 842.868031 895.235924 C837.738985 895.924992 832.572189 896.332976 827.398560 896.457435 C822.045861 896.586204 816.163823 896.210526 812.244595 892.562566 C808.619424 889.188312 807.621336 883.699745 808.476492 878.821614 C809.331648 873.943484 811.765239 869.507358 814.161873 865.173354 C825.684152 844.336797 837.206429 823.500241 848.728706 802.663685 C850.383719 799.670807 852.567942 796.316505 855.975374 796.023600 z"/><path class="selected"  fill="#FFFFFF" opacity="1.000000" stroke="none" 
 	d="
M777.013128 745.045990 C776.583738 743.251522 779.583135 743.098361 781.243119 743.903932 C800.086308 753.048334 818.929498 762.192734 837.772688 771.337133 C839.688896 772.267048 840.544398 774.483672 841.229908 776.500272 C842.966396 781.608594 844.370904 788.119941 840.321289 791.685185 C824.354310 805.742365 808.387332 819.799545 792.420354 833.856725 C789.159263 803.968402 784.009887 774.286235 777.013128 745.045990 z"/><path class="selected"  fill="#FFFFFF" opacity="1.000000" stroke="none" 
 	d="
M675.274352 591.225006 C667.611159 577.606519 659.947965 563.988032 652.284771 550.369545 C654.391490 549.698057 656.555700 551.058452 658.349484 552.351317 C666.565972 558.273344 674.782461 564.195367 682.998950 570.117391 C683.720059 570.637129 684.493937 571.234285 684.683878 572.102644 C684.865675 572.933772 684.457213 573.768038 684.061135 574.520996 C681.132208 580.088999 678.203280 585.657003 675.274352 591.225006 z"/><path class="selected"  fill="#FFFFFF" opacity="1.000000" stroke="none" 
 	d="
M794.103825 852.276318 C793.662682 848.887859 793.250216 845.290223 794.670263 842.182212 C795.745200 839.829538 797.745770 838.051192 799.690740 836.346007 C814.031207 823.773507 828.371673 811.201007 842.712139 798.628506 C841.764427 801.676564 840.124517 804.454790 838.508804 807.207659 C824.856589 830.468436 811.926814 854.153219 799.744394 878.216372 C797.645498 877.465802 797.041549 874.841258 796.753777 872.630850 C795.870459 865.846006 794.987142 859.061162 794.103825 852.276318 z"/><path class="selected"  fill="#FFFFFF" opacity="1.000000" stroke="none" 
 	d="
M747.221526 883.916849 C747.930396 878.445705 752.562079 874.447527 756.869939 871.001043 C766.766634 863.083242 776.663328 855.165439 786.560023 847.247636 C787.318180 854.752112 788.076336 862.256588 788.834493 869.761064 C789.267169 874.043822 789.637118 878.646373 787.507317 882.387118 C786.049452 884.947688 783.598888 886.760541 781.611921 888.936282 C779.624954 891.112024 778.018903 894.092421 778.848032 896.919864 C780.243867 901.679841 775.639127 905.899273 771.568938 908.734635 C759.368536 917.233629 747.161765 925.736839 734.546437 933.606794 C740.753528 917.635120 745.019775 900.910219 747.221526 883.916849 z"/><path class="selected"  fill="#FFFFFF" opacity="1.000000" stroke="none" 
 	d="
M827.752563 390.175448 C825.910447 391.308713 824.002825 392.466605 821.863821 392.786513 C817.049894 393.506480 812.520798 389.629619 810.749304 385.095962 C808.977811 380.562304 809.277912 375.525643 809.469354 370.661942 C810.310485 349.292801 808.527891 327.821654 804.174317 306.883793 C803.854525 305.345810 804.508210 302.911295 805.947499 303.540665 C806.204262 303.652942 806.405668 303.859756 806.599845 304.061816 C824.567282 322.758694 840.569104 343.343349 854.256653 365.367269 C855.892420 367.999296 857.214604 372.050468 854.575164 373.674245 C845.634297 379.174646 836.693430 384.675047 827.752563 390.175447 z"/></svg>